<?xml version="1.0" encoding="utf-8"?>
<svg xmlns:bx="https://boxy-svg.com" viewBox="0 0 416 40" width="416" height="40" xmlns="http://www.w3.org/2000/svg">
    <defs>
        <linearGradient id="color-4" bx:pinned="true">
            <stop style="stop-color: rgb(255, 247, 245);"/>
        </linearGradient>
        <linearGradient id="color-0" bx:pinned="true">
            <stop style="stop-color: rgb(11, 65, 205);"/>
        </linearGradient>
        <linearGradient id="color-2" bx:pinned="true">
            <stop style="stop-color: rgb(112, 107, 105);"/>
        </linearGradient>
    </defs>
    <rect width="416" height="40" style="stroke: rgba(0, 0, 0, 0); fill: url(#color-4);"/>
    <polyline style="stroke: url(#color-0); stroke-width: 2px; fill: rgba(255, 255, 255, 0);"
              points="178.581 107.782 234.4 107.824 48.691 -105.821"
              transform="matrix(0.656059, -0.754709, 0.754709, 0.656059, 47.927418, 107.170158)"/>
    <g transform="matrix(1.106775, 0, 0, 1.106775, -127.643219, 6.168615)" style="">
        <g transform="matrix(1, 0, 0, 1, -0.674657, 0.473117)">
            <g transform="matrix(1, 0, 0, 1, -4.778301, -0.869091)">
                <path d="M 184.42134252929688 5.755000305175782 L 184.42134252929688 7.503000305175782 L 180.83034252929687 7.503000305175782 L 180.83034252929687 19.05500030517578 L 178.94934252929687 19.05500030517578 L 178.94934252929687 7.503000305175782 L 175.35834252929686 7.503000305175782 L 175.35834252929686 5.755000305175782 Z M 186.44695056152344 19.05500030517578 L 186.44695056152344 5.755000305175782 L 188.17595056152345 5.755000305175782 L 188.17595056152345 10.676000305175782 Q 188.47995056152342 10.144000305175782 189.17345056152342 9.773500305175782 Q 189.86695056152342 9.403000305175782 190.72195056152344 9.403000305175782 Q 192.22295056152345 9.403000305175782 193.10645056152345 10.353000305175781 Q 193.98995056152344 11.303000305175782 193.98995056152344 12.861000305175782 L 193.98995056152344 19.05500030517578 L 192.26095056152343 19.05500030517578 L 192.26095056152343 13.241000305175781 Q 192.26095056152343 12.234000305175782 191.69095056152344 11.616500305175782 Q 191.12095056152344 10.999000305175782 190.22795056152344 10.999000305175782 Q 189.33495056152344 10.999000305175782 188.75545056152345 11.626000305175783 Q 188.17595056152345 12.253000305175782 188.17595056152345 13.241000305175781 L 188.17595056152345 19.05500030517578 Z M 204.82349438476564 14.68500030517578 L 198.21149438476561 14.68500030517578 Q 198.21149438476561 16.07200030517578 198.91449438476562 16.917500305175782 Q 199.61749438476562 17.76300030517578 200.73849438476563 17.76300030517578 Q 201.61249438476563 17.76300030517578 202.17299438476562 17.33550030517578 Q 202.73349438476563 16.908000305175783 203.0564943847656 16.11000030517578 L 204.61449438476564 16.69900030517578 Q 203.56949438476562 19.283000305175783 200.73849438476563 19.283000305175783 Q 199.48449438476564 19.283000305175783 198.51549438476562 18.68450030517578 Q 197.54649438476562 18.08600030517578 197.00499438476564 17.01250030517578 Q 196.46349438476562 15.939000305175782 196.46349438476562 14.590000305175781 L 196.46349438476562 14.096000305175782 Q 196.46349438476562 12.728000305175781 197.0144943847656 11.664000305175781 Q 197.56549438476563 10.600000305175781 198.54399438476563 10.001500305175782 Q 199.52249438476562 9.403000305175782 200.75749438476564 9.403000305175782 Q 201.91649438476563 9.403000305175782 202.83799438476564 9.935000305175782 Q 203.75949438476562 10.467000305175782 204.29149438476563 11.493000305175782 Q 204.82349438476564 12.519000305175782 204.82349438476564 13.963000305175783 Z M 200.75749438476564 10.904000305175781 Q 199.71249438476562 10.904000305175781 199.05699438476563 11.578500305175782 Q 198.4014943847656 12.253000305175782 198.24949438476563 13.393000305175782 L 203.11349438476563 13.393000305175782 Q 203.03749438476564 12.253000305175782 202.38199438476562 11.578500305175782 Q 201.72649438476563 10.904000305175781 200.75749438476564 10.904000305175781 Z"
                      transform="matrix(1, 0, 0, 1, 0, 0)"
                      style="fill: url(#color-2); line-height: 30.3585px; white-space: pre;"/>
                <path d="M 219.0900068359375 19.093000411987305 L 217.1140068359375 19.093000411987305 L 216.1450068359375 16.091000411987306 L 210.8630068359375 16.091000411987306 L 209.8940068359375 19.093000411987305 L 207.9180068359375 19.093000411987305 L 212.4210068359375 5.793000411987306 L 214.5870068359375 5.793000411987306 Z M 213.5040068359375 8.016000411987305 L 211.4140068359375 14.419000411987305 L 215.5940068359375 14.419000411987305 Z M 220.9260155029297 19.093000411987305 L 220.9260155029297 9.669000411987305 L 222.6360155029297 9.669000411987305 L 222.6360155029297 10.638000411987305 Q 222.88301550292968 10.144000411987305 223.49101550292968 9.792500411987305 Q 224.0990155029297 9.441000411987305 224.8970155029297 9.441000411987305 Q 225.73301550292967 9.441000411987305 226.35051550292968 9.802000411987304 Q 226.9680155029297 10.163000411987305 227.2720155029297 10.790000411987306 Q 227.63301550292968 10.182000411987305 228.30751550292968 9.811500411987305 Q 228.9820155029297 9.441000411987305 229.8560155029297 9.441000411987305 Q 231.20501550292968 9.441000411987305 231.9460155029297 10.286500411987305 Q 232.68701550292968 11.132000411987306 232.68701550292968 12.557000411987305 L 232.68701550292968 19.093000411987305 L 230.97701550292967 19.093000411987305 L 230.97701550292967 12.842000411987305 Q 230.97701550292967 12.006000411987305 230.52101550292969 11.512000411987305 Q 230.0650155029297 11.018000411987305 229.32401550292968 11.018000411987305 Q 228.5830155029297 11.018000411987305 228.12701550292968 11.531000411987305 Q 227.6710155029297 12.044000411987305 227.6710155029297 12.861000411987305 L 227.6710155029297 19.093000411987305 L 225.94201550292968 19.093000411987305 L 225.94201550292968 12.842000411987305 Q 225.94201550292968 11.987000411987305 225.4860155029297 11.502500411987306 Q 225.0300155029297 11.018000411987305 224.2890155029297 11.018000411987305 Q 223.5480155029297 11.018000411987305 223.09201550292968 11.531000411987305 Q 222.6360155029297 12.044000411987305 222.6360155029297 12.861000411987305 L 222.6360155029297 19.093000411987305 Z M 240.07768591308593 19.321000411987306 Q 239.18468591308593 19.321000411987306 238.48168591308593 18.960000411987306 Q 237.77868591308595 18.599000411987305 237.37968591308595 17.934000411987306 L 237.37968591308595 19.093000411987305 L 235.65068591308594 19.093000411987305 L 235.65068591308594 5.793000411987306 L 237.37968591308595 5.793000411987306 L 237.37968591308595 10.828000411987304 Q 237.74068591308594 10.239000411987305 238.47218591308592 9.840000411987305 Q 239.20368591308593 9.441000411987305 240.09668591308593 9.441000411987305 Q 241.23668591308595 9.441000411987305 242.12018591308595 10.020500411987305 Q 243.00368591308595 10.600000411987304 243.49768591308595 11.664000411987306 Q 243.99168591308595 12.728000411987304 243.99168591308595 14.134000411987305 L 243.99168591308595 14.628000411987305 Q 243.99168591308595 16.034000411987304 243.48818591308594 17.098000411987304 Q 242.98468591308594 18.162000411987304 242.10118591308594 18.741500411987303 Q 241.21768591308594 19.321000411987306 240.07768591308593 19.321000411987306 Z M 239.75468591308595 17.668000411987304 Q 240.89468591308594 17.668000411987304 241.55018591308593 16.860500411987303 Q 242.20568591308594 16.053000411987306 242.20568591308594 14.647000411987305 L 242.20568591308594 14.115000411987305 Q 242.20568591308594 12.709000411987304 241.55018591308593 11.901500411987305 Q 240.89468591308594 11.094000411987306 239.75468591308595 11.094000411987306 Q 238.61468591308594 11.094000411987306 237.95918591308595 11.901500411987305 Q 237.30368591308593 12.709000411987304 237.30368591308593 14.115000411987305 L 237.30368591308593 14.647000411987305 Q 237.30368591308593 16.053000411987306 237.95918591308595 16.860500411987303 Q 238.61468591308594 17.668000411987304 239.75468591308595 17.668000411987304 Z M 248.79469274902343 19.321000411987306 Q 247.54069274902344 19.321000411987306 246.75219274902344 18.570500411987304 Q 245.96369274902344 17.820000411987305 245.96369274902344 16.585000411987306 L 245.96369274902344 16.528000411987303 Q 245.96369274902344 15.255000411987304 246.80919274902342 14.523500411987305 Q 247.65469274902344 13.792000411987305 249.07969274902345 13.507000411987304 L 251.53069274902344 13.032000411987305 L 251.53069274902344 12.766000411987305 Q 251.53069274902344 11.930000411987304 251.02719274902344 11.417000411987305 Q 250.52369274902344 10.904000411987305 249.63069274902344 10.904000411987305 Q 248.03469274902343 10.904000411987305 247.48369274902345 12.519000411987305 L 246.03969274902343 11.949000411987305 Q 246.40069274902345 10.809000411987306 247.35069274902344 10.125000411987305 Q 248.30069274902343 9.441000411987305 249.63069274902344 9.441000411987305 Q 251.34069274902345 9.441000411987305 252.28119274902343 10.343500411987305 Q 253.22169274902345 11.246000411987305 253.22169274902345 12.747000411987305 L 253.22169274902345 16.984000411987303 Q 253.22169274902345 17.383000411987304 253.41169274902344 17.620500411987305 Q 253.60169274902344 17.858000411987305 253.98169274902344 17.858000411987305 Q 254.28569274902344 17.858000411987305 254.58969274902344 17.706000411987304 L 254.58969274902344 19.093000411987305 Q 254.11469274902345 19.321000411987306 253.44969274902343 19.321000411987306 Q 252.68969274902344 19.321000411987306 252.21469274902344 18.874500411987306 Q 251.73969274902345 18.428000411987306 251.66369274902343 17.687000411987306 Q 250.80869274902344 19.321000411987306 248.79469274902343 19.321000411987306 Z M 249.17469274902345 17.858000411987305 Q 250.27669274902343 17.858000411987305 250.90369274902343 17.079000411987305 Q 251.53069274902344 16.300000411987305 251.53069274902344 14.894000411987305 L 251.53069274902344 14.305000411987304 L 249.34569274902344 14.742000411987306 Q 247.69269274902345 15.103000411987304 247.69269274902345 16.452000411987306 L 247.69269274902345 16.471000411987305 Q 247.69269274902345 17.079000411987305 248.10119274902343 17.468500411987304 Q 248.50969274902343 17.858000411987305 249.17469274902345 17.858000411987305 Z M 259.12918579101563 19.359000411987303 Q 257.8371857910156 19.359000411987303 256.9156857910156 18.694000411987304 Q 255.99418579101564 18.029000411987305 255.65218579101563 16.946000411987306 L 257.1341857910156 16.224000411987305 Q 257.38118579101564 16.965000411987305 257.9131857910156 17.402000411987306 Q 258.4451857910156 17.839000411987303 259.14818579101564 17.839000411987303 Q 259.8891857910156 17.839000411987303 260.37368579101565 17.497000411987305 Q 260.8581857910156 17.155000411987306 260.8581857910156 16.547000411987305 Q 260.8581857910156 15.920000411987305 260.37368579101565 15.559000411987306 Q 259.8891857910156 15.198000411987305 258.76818579101564 14.932000411987305 Q 257.4571857910156 14.628000411987305 256.7066857910156 13.877500411987306 Q 255.95618579101563 13.127000411987304 255.95618579101563 12.044000411987305 Q 255.95618579101563 11.284000411987304 256.38368579101564 10.695000411987305 Q 256.81118579101565 10.106000411987305 257.54268579101563 9.773500411987305 Q 258.2741857910156 9.441000411987305 259.14818579101564 9.441000411987305 Q 260.38318579101565 9.441000411987305 261.2096857910156 9.992000411987306 Q 262.0361857910156 10.543000411987306 262.3971857910156 11.531000411987305 L 261.0671857910156 12.196000411987304 Q 260.8201857910156 11.569000411987304 260.2976857910156 11.208000411987305 Q 259.77518579101564 10.847000411987304 259.12918579101563 10.847000411987304 Q 258.4261857910156 10.847000411987304 257.97018579101564 11.179500411987306 Q 257.5141857910156 11.512000411987305 257.5141857910156 12.025000411987305 Q 257.5141857910156 12.576000411987305 258.00818579101565 12.956000411987304 Q 258.5021857910156 13.336000411987305 259.6421857910156 13.602000411987305 Q 261.0861857910156 13.925000411987305 261.8176857910156 14.609000411987305 Q 262.54918579101565 15.293000411987304 262.54918579101565 16.490000411987303 Q 262.54918579101565 17.345000411987304 262.10268579101563 17.991000411987304 Q 261.6561857910156 18.637000411987305 260.8676857910156 18.998000411987306 Q 260.0791857910156 19.359000411987303 259.12918579101563 19.359000411987303 Z M 267.47269165039063 19.359000411987303 Q 266.1806916503906 19.359000411987303 265.2591916503906 18.694000411987304 Q 264.33769165039064 18.029000411987305 263.9956916503906 16.946000411987306 L 265.4776916503906 16.224000411987305 Q 265.72469165039064 16.965000411987305 266.2566916503906 17.402000411987306 Q 266.7886916503906 17.839000411987303 267.49169165039064 17.839000411987303 Q 268.2326916503906 17.839000411987303 268.71719165039065 17.497000411987305 Q 269.2016916503906 17.155000411987306 269.2016916503906 16.547000411987305 Q 269.2016916503906 15.920000411987305 268.71719165039065 15.559000411987306 Q 268.2326916503906 15.198000411987305 267.11169165039064 14.932000411987305 Q 265.8006916503906 14.628000411987305 265.0501916503906 13.877500411987306 Q 264.2996916503906 13.127000411987304 264.2996916503906 12.044000411987305 Q 264.2996916503906 11.284000411987304 264.72719165039064 10.695000411987305 Q 265.15469165039065 10.106000411987305 265.88619165039063 9.773500411987305 Q 266.6176916503906 9.441000411987305 267.49169165039064 9.441000411987305 Q 268.72669165039065 9.441000411987305 269.5531916503906 9.992000411987306 Q 270.3796916503906 10.543000411987306 270.7406916503906 11.531000411987305 L 269.4106916503906 12.196000411987304 Q 269.1636916503906 11.569000411987304 268.6411916503906 11.208000411987305 Q 268.11869165039064 10.847000411987304 267.47269165039063 10.847000411987304 Q 266.7696916503906 10.847000411987304 266.31369165039064 11.179500411987306 Q 265.8576916503906 11.512000411987305 265.8576916503906 12.025000411987305 Q 265.8576916503906 12.576000411987305 266.35169165039065 12.956000411987304 Q 266.8456916503906 13.336000411987305 267.9856916503906 13.602000411987305 Q 269.4296916503906 13.925000411987305 270.1611916503906 14.609000411987305 Q 270.89269165039065 15.293000411987304 270.89269165039065 16.490000411987303 Q 270.89269165039065 17.345000411987304 270.44619165039063 17.991000411987304 Q 269.9996916503906 18.637000411987305 269.2111916503906 18.998000411987306 Q 268.4226916503906 19.359000411987303 267.47269165039063 19.359000411987303 Z M 275.5263669433594 19.321000411987306 Q 274.2723669433594 19.321000411987306 273.4838669433594 18.570500411987304 Q 272.6953669433594 17.820000411987305 272.6953669433594 16.585000411987306 L 272.6953669433594 16.528000411987303 Q 272.6953669433594 15.255000411987304 273.5408669433594 14.523500411987305 Q 274.38636694335935 13.792000411987305 275.81136694335936 13.507000411987304 L 278.2623669433594 13.032000411987305 L 278.2623669433594 12.766000411987305 Q 278.2623669433594 11.930000411987304 277.75886694335935 11.417000411987305 Q 277.2553669433594 10.904000411987305 276.36236694335935 10.904000411987305 Q 274.7663669433594 10.904000411987305 274.21536694335936 12.519000411987305 L 272.7713669433594 11.949000411987305 Q 273.1323669433594 10.809000411987306 274.0823669433594 10.125000411987305 Q 275.03236694335936 9.441000411987305 276.36236694335935 9.441000411987305 Q 278.0723669433594 9.441000411987305 279.01286694335937 10.343500411987305 Q 279.95336694335936 11.246000411987305 279.95336694335936 12.747000411987305 L 279.95336694335936 16.984000411987303 Q 279.95336694335936 17.383000411987304 280.14336694335935 17.620500411987305 Q 280.33336694335935 17.858000411987305 280.71336694335935 17.858000411987305 Q 281.0173669433594 17.858000411987305 281.32136694335935 17.706000411987304 L 281.32136694335935 19.093000411987305 Q 280.8463669433594 19.321000411987306 280.18136694335936 19.321000411987306 Q 279.4213669433594 19.321000411987306 278.94636694335935 18.874500411987306 Q 278.4713669433594 18.428000411987306 278.39536694335936 17.687000411987306 Q 277.5403669433594 19.321000411987306 275.5263669433594 19.321000411987306 Z M 275.9063669433594 17.858000411987305 Q 277.00836694335936 17.858000411987305 277.6353669433594 17.079000411987305 Q 278.2623669433594 16.300000411987305 278.2623669433594 14.894000411987305 L 278.2623669433594 14.305000411987304 L 276.0773669433594 14.742000411987306 Q 274.42436694335936 15.103000411987304 274.42436694335936 16.452000411987306 L 274.42436694335936 16.471000411987305 Q 274.42436694335936 17.079000411987305 274.83286694335936 17.468500411987304 Q 275.24136694335937 17.858000411987305 275.9063669433594 17.858000411987305 Z M 286.40697436523436 19.321000411987306 Q 285.24797436523437 19.321000411987306 284.3644743652344 18.741500411987303 Q 283.4809743652344 18.162000411987304 282.9869743652344 17.107500411987303 Q 282.4929743652344 16.053000411987306 282.4929743652344 14.628000411987305 L 282.4929743652344 14.134000411987305 Q 282.4929743652344 12.709000411987304 282.9869743652344 11.654500411987305 Q 283.4809743652344 10.600000411987304 284.3739743652344 10.020500411987305 Q 285.2669743652344 9.441000411987305 286.4449743652344 9.441000411987305 Q 287.35697436523435 9.441000411987305 288.0409743652344 9.802000411987304 Q 288.7249743652344 10.163000411987305 289.1049743652344 10.733000411987305 L 289.1049743652344 5.793000411987306 L 290.8339743652344 5.793000411987306 L 290.8339743652344 19.093000411987305 L 289.1049743652344 19.093000411987305 L 289.1049743652344 17.896000411987306 Q 288.2499743652344 19.321000411987306 286.40697436523436 19.321000411987306 Z M 286.7299743652344 17.668000411987304 Q 287.8699743652344 17.668000411987304 288.5254743652344 16.860500411987303 Q 289.18097436523436 16.053000411987306 289.18097436523436 14.647000411987305 L 289.18097436523436 14.115000411987305 Q 289.18097436523436 12.709000411987304 288.5254743652344 11.901500411987305 Q 287.8699743652344 11.094000411987306 286.7299743652344 11.094000411987306 Q 285.58997436523435 11.094000411987306 284.9344743652344 11.901500411987305 Q 284.2789743652344 12.709000411987304 284.2789743652344 14.115000411987305 L 284.2789743652344 14.647000411987305 Q 284.2789743652344 16.053000411987306 284.9344743652344 16.860500411987303 Q 285.58997436523435 17.668000411987304 286.7299743652344 17.668000411987304 Z M 297.65803076171875 19.321000411987306 Q 296.40403076171873 19.321000411987306 295.41603076171873 18.722500411987305 Q 294.42803076171873 18.124000411987303 293.86753076171874 17.050500411987304 Q 293.30703076171875 15.977000411987305 293.30703076171875 14.628000411987305 L 293.30703076171875 14.134000411987305 Q 293.30703076171875 12.785000411987305 293.86753076171874 11.711500411987306 Q 294.42803076171873 10.638000411987305 295.41603076171873 10.039500411987305 Q 296.40403076171873 9.441000411987305 297.65803076171875 9.441000411987305 Q 298.91203076171877 9.441000411987305 299.90003076171877 10.039500411987305 Q 300.88803076171877 10.638000411987305 301.43903076171875 11.711500411987306 Q 301.99003076171874 12.785000411987305 301.99003076171874 14.134000411987305 L 301.99003076171874 14.628000411987305 Q 301.99003076171874 15.977000411987305 301.43903076171875 17.050500411987304 Q 300.88803076171877 18.124000411987303 299.90003076171877 18.722500411987305 Q 298.91203076171877 19.321000411987306 297.65803076171875 19.321000411987306 Z M 297.65803076171875 17.668000411987304 Q 298.81703076171874 17.668000411987304 299.51053076171877 16.841500411987305 Q 300.20403076171874 16.015000411987305 300.20403076171874 14.647000411987305 L 300.20403076171874 14.115000411987305 Q 300.20403076171874 12.747000411987305 299.51053076171877 11.920500411987305 Q 298.81703076171874 11.094000411987306 297.65803076171875 11.094000411987306 Q 296.48003076171875 11.094000411987306 295.7865307617187 11.920500411987305 Q 295.09303076171875 12.747000411987305 295.09303076171875 14.115000411987305 L 295.09303076171875 14.647000411987305 Q 295.09303076171875 16.015000411987305 295.7865307617187 16.841500411987305 Q 296.48003076171875 17.668000411987304 297.65803076171875 17.668000411987304 Z M 304.4527641601563 19.093000411987305 L 304.4527641601563 9.669000411987305 L 306.18176416015626 9.669000411987305 L 306.18176416015626 10.809000411987306 Q 306.4477641601562 10.201000411987305 307.07476416015623 9.821000411987304 Q 307.70176416015624 9.441000411987305 308.49976416015625 9.441000411987305 Q 309.05076416015623 9.441000411987305 309.46876416015624 9.593000411987305 L 309.46876416015624 11.265000411987305 Q 308.89876416015625 11.037000411987306 308.27176416015624 11.037000411987306 Q 307.34076416015625 11.037000411987306 306.76126416015626 11.702000411987305 Q 306.18176416015626 12.367000411987306 306.18176416015626 13.450000411987304 L 306.18176416015626 19.093000411987305 Z"
                      transform="matrix(1, 0, 0, 1, 0, 0)"
                      style="fill: url(#color-2); line-height: 30.3585px; white-space: pre;"/>
            </g>
        </g>
    </g>
    <path d="M 323.34599072265627 26.840999603271484 L 320.2589907226562 26.840999603271484 L 319.2299907226562 23.900999603271483 L 313.45499072265625 23.900999603271483 L 312.42599072265625 26.840999603271484 L 309.33899072265626 26.840999603271484 L 314.81999072265626 12.140999603271483 L 317.84399072265626 12.140999603271483 Z M 316.33199072265626 15.647999603271483 L 314.2949907226562 21.485999603271484 L 318.38999072265625 21.485999603271484 Z M 328.5274282226562 27.092999603271483 Q 327.20442822265625 27.092999603271483 326.15442822265624 26.431499603271483 Q 325.1044282226562 25.769999603271483 324.51642822265626 24.551999603271483 Q 323.92842822265624 23.333999603271483 323.92842822265624 21.737999603271483 L 323.92842822265624 21.527999603271482 Q 323.92842822265624 19.931999603271485 324.51642822265626 18.713999603271482 Q 325.1044282226562 17.495999603271486 326.15442822265624 16.83449960327148 Q 327.20442822265625 16.172999603271485 328.54842822265624 16.172999603271485 Q 329.51442822265625 16.172999603271485 330.2389282226562 16.508999603271484 Q 330.96342822265626 16.844999603271482 331.40442822265624 17.432999603271483 L 331.40442822265624 12.140999603271483 L 333.94542822265623 12.140999603271483 L 333.94542822265623 26.840999603271484 L 331.40442822265624 26.840999603271484 L 331.40442822265624 25.685999603271483 Q 330.41742822265627 27.092999603271483 328.5274282226562 27.092999603271483 Z M 329.03142822265625 24.698999603271485 Q 330.14442822265624 24.698999603271485 330.82692822265625 23.890499603271483 Q 331.50942822265625 23.081999603271484 331.50942822265625 21.758999603271484 L 331.50942822265625 21.506999603271485 Q 331.50942822265625 20.183999603271484 330.82692822265625 19.375499603271486 Q 330.14442822265624 18.566999603271483 329.03142822265625 18.566999603271483 Q 327.91842822265625 18.566999603271483 327.22542822265626 19.375499603271486 Q 326.5324282226562 20.183999603271484 326.5324282226562 21.506999603271485 L 326.5324282226562 21.758999603271484 Q 326.5324282226562 23.081999603271484 327.22542822265626 23.890499603271483 Q 327.91842822265625 24.698999603271485 329.03142822265625 24.698999603271485 Z M 341.92367822265624 26.840999603271484 L 339.1936782226563 26.840999603271484 L 335.37167822265627 16.424999603271484 L 338.12267822265625 16.424999603271484 L 340.5586782226562 23.627999603271483 L 342.99467822265626 16.424999603271484 L 345.7246782226562 16.424999603271484 Z M 348.46049072265623 14.975999603271484 Q 347.76749072265625 14.975999603271484 347.27399072265627 14.482499603271483 Q 346.7804907226562 13.988999603271484 346.7804907226562 13.295999603271483 Q 346.7804907226562 12.602999603271483 347.27399072265627 12.109499603271484 Q 347.76749072265625 11.615999603271483 348.46049072265623 11.615999603271483 Q 349.1534907226563 11.615999603271483 349.6364907226563 12.109499603271484 Q 350.1194907226562 12.602999603271483 350.1194907226562 13.295999603271483 Q 350.1194907226562 13.988999603271484 349.6364907226563 14.482499603271483 Q 349.1534907226563 14.975999603271484 348.46049072265623 14.975999603271484 Z M 349.7204907226562 26.840999603271484 L 347.1794907226562 26.840999603271484 L 347.1794907226562 16.424999603271484 L 349.7204907226562 16.424999603271484 Z M 356.1641157226563 27.134999603271485 Q 354.5681157226563 27.134999603271485 353.4236157226562 26.420999603271483 Q 352.27911572265623 25.706999603271484 351.81711572265624 24.551999603271483 L 353.87511572265623 23.354999603271484 Q 354.14811572265626 24.068999603271486 354.77811572265625 24.499499603271484 Q 355.40811572265625 24.929999603271483 356.18511572265623 24.929999603271483 Q 356.94111572265626 24.929999603271483 357.3611157226562 24.635999603271486 Q 357.78111572265624 24.341999603271486 357.78111572265624 23.837999603271484 Q 357.78111572265624 23.312999603271486 357.25611572265626 23.018999603271485 Q 356.7311157226562 22.724999603271485 355.49211572265625 22.430999603271484 Q 353.89611572265625 22.073999603271485 353.11911572265626 21.296999603271484 Q 352.3421157226563 20.519999603271483 352.3421157226563 19.238999603271484 Q 352.3421157226563 17.873999603271486 353.40261572265626 17.044499603271483 Q 354.46311572265626 16.214999603271483 356.12211572265625 16.214999603271483 Q 358.9571157226562 16.214999603271483 360.00711572265624 18.461999603271483 L 358.13811572265627 19.532999603271485 Q 357.8441157226562 18.902999603271482 357.28761572265626 18.556499603271483 Q 356.7311157226562 18.209999603271484 356.0801157226563 18.209999603271484 Q 355.40811572265625 18.209999603271484 354.99861572265627 18.482999603271484 Q 354.58911572265623 18.755999603271484 354.58911572265623 19.196999603271486 Q 354.58911572265623 19.658999603271482 355.0511157226563 19.973999603271483 Q 355.51311572265627 20.288999603271485 356.68911572265625 20.519999603271483 Q 358.41111572265623 20.876999603271486 359.31411572265625 21.622499603271486 Q 360.2171157226563 22.367999603271485 360.2171157226563 23.753999603271485 Q 360.2171157226563 24.740999603271483 359.71311572265626 25.507499603271484 Q 359.20911572265624 26.273999603271484 358.28511572265626 26.704499603271483 Q 357.3611157226562 27.134999603271485 356.1641157226563 27.134999603271485 Z M 366.9562407226563 27.092999603271483 Q 365.48624072265625 27.092999603271483 364.31024072265626 26.399999603271485 Q 363.1342407226563 25.706999603271484 362.4727407226562 24.488999603271484 Q 361.81124072265624 23.270999603271484 361.81124072265624 21.737999603271483 L 361.81124072265624 21.527999603271482 Q 361.81124072265624 19.994999603271484 362.4727407226562 18.776999603271484 Q 363.1342407226563 17.558999603271484 364.31024072265626 16.865999603271483 Q 365.48624072265625 16.172999603271485 366.9562407226563 16.172999603271485 Q 368.44724072265626 16.172999603271485 369.62324072265625 16.865999603271483 Q 370.79924072265624 17.558999603271484 371.4607407226562 18.776999603271484 Q 372.1222407226563 19.994999603271484 372.1222407226563 21.527999603271482 L 372.1222407226563 21.737999603271483 Q 372.1222407226563 23.270999603271484 371.4607407226562 24.488999603271484 Q 370.79924072265624 25.706999603271484 369.62324072265625 26.399999603271485 Q 368.44724072265626 27.092999603271483 366.9562407226563 27.092999603271483 Z M 366.9562407226563 24.698999603271485 Q 368.13224072265626 24.698999603271485 368.82524072265625 23.879999603271486 Q 369.51824072265623 23.060999603271483 369.51824072265623 21.758999603271484 L 369.51824072265623 21.506999603271485 Q 369.51824072265623 20.204999603271485 368.82524072265625 19.385999603271486 Q 368.13224072265626 18.566999603271483 366.9562407226563 18.566999603271483 Q 365.80124072265625 18.566999603271483 365.10824072265626 19.385999603271486 Q 364.4152407226562 20.204999603271485 364.4152407226562 21.506999603271485 L 364.4152407226562 21.758999603271484 Q 364.4152407226562 23.060999603271483 365.10824072265626 23.879999603271486 Q 365.80124072265625 24.698999603271485 366.9562407226563 24.698999603271485 Z M 374.1404282226562 26.840999603271484 L 374.1404282226562 16.424999603271484 L 376.6814282226562 16.424999603271484 L 376.6814282226562 17.789999603271482 Q 377.03842822265625 17.075999603271484 377.7944282226563 16.624499603271484 Q 378.55042822265625 16.172999603271485 379.43242822265626 16.172999603271485 Q 379.99942822265626 16.172999603271485 380.54542822265626 16.340999603271484 L 380.54542822265626 18.797999603271485 Q 379.87342822265623 18.482999603271484 379.15942822265623 18.482999603271484 Q 378.04642822265623 18.482999603271484 377.3639282226562 19.238999603271484 Q 376.6814282226562 19.994999603271484 376.6814282226562 21.212999603271484 L 376.6814282226562 26.840999603271484 Z"
          transform="matrix(1, 0, 0, 1, 0, 0)"
          style="fill: url(#color-0); text-transform: capitalize; white-space: pre;"/>
</svg>